<?xml version="1.0" encoding="utf-8"?>
<svg xmlns="http://www.w3.org/2000/svg" width="64" height="58" viewBox="-60 0 200 50" fill="none">
<path d="M64 24.975H61.8901M61.8901 24.975C58.7253 24.975 56.2637 27.425 56.2637 30.575V48.775C56.2637 53.325 52.5714 57 48 57H16C11.4286 57 7.73626 53.325 7.73626 48.775V30.575C7.73626 27.425 5.27472 24.975 2.10989 24.975M61.8901 24.975C58.7253 24.975 56.2637 22.525 56.2637 19.375V9.22501C56.2637 4.67501 52.5714 1 48 1H16C11.4286 1 7.73626 4.67501 7.73626 9.22501V19.375C7.73626 22.525 5.27472 24.975 2.10989 24.975M2.10989 24.975H0M16 4.03311C16 4.03311 30.0659 8.07706 48 4.03311" stroke="#001E2B" stroke-miterlimit="10"/>
<path d="M20 29.1318C20 35.7318 25.4 41.1318 32 41.1318C38.6 41.1318 44 35.7318 44 29.1318C44 22.5318 38.6 17.1318 32 17.1318C25.4 17.1318 20 22.5318 20 29.1318Z" fill="#00ED64" stroke="#001E2B" stroke-miterlimit="10"/>
<path d="M27 29.1318H27.3982M27.3982 29.1318C27.9735 29.1318 28.4159 29.5718 28.4159 30.0518V31.7718C28.4159 32.5318 29.0797 33.1318 29.9204 33.1318M27.3982 29.1318C27.9735 29.1318 28.4161 28.6919 28.4161 28.2119V26.4919C28.4161 25.7318 29.0798 25.1318 29.9205 25.1318M37 29.1318H36.6018M36.6018 29.1318C36.0265 29.1318 35.5841 29.5718 35.5841 30.0518V31.7718C35.5841 32.5318 34.9203 33.1318 34.0796 33.1318M36.6018 29.1318C36.0265 29.1318 35.5841 28.6919 35.5841 28.2119V26.4919C35.5841 25.7318 34.9203 25.1318 34.0796 25.1318" stroke="#001E2B" stroke-miterlimit="10"/>
</svg>