<?xml version="1.0" encoding="utf-8"?>
<svg xmlns="http://www.w3.org/2000/svg" width="47" height="58" viewBox="-60 0 200 50" fill="none">
<path d="M37 57H13.2928C12.019 57 11 55.95 11 54.6375V3.3625C11 2.05 12.019 1 13.2928 1H37M19.8219 7.98921H33.937" stroke="#001E2B" stroke-miterlimit="10" stroke-linejoin="round"/>
<path d="M42.4712 3.3625C42.4712 2.05 41.4522 1 40.1785 1H43.7073C44.981 1 46 2.05 46 3.3625V54.725C45.9151 55.95 44.8961 57 43.7073 57H40.1785C41.3673 57 42.3863 55.95 42.4712 54.725V3.3625Z" fill="#00ED64"/>
<path d="M36 57H40.1785C41.3673 57 42.3863 55.95 42.4712 54.725V3.3625C42.4712 2.05 41.4522 1 40.1785 1H36M38.9425 57H43.7073C44.8961 57 45.9151 55.95 46 54.725V3.3625C46 2.05 44.981 1 43.7073 1H38.9425" stroke="#001E2B" stroke-miterlimit="10" stroke-linejoin="round"/>
<path d="M1.50807 37.8753C0.768441 36.7391 1.13825 35.0979 2.2477 34.3405L9.02765 29.7957C9.39746 29.5432 9.27419 28.912 8.78111 28.912H3.60369C2.49424 28.912 1.75461 28.1546 1.3848 27.3971C1.01498 26.3872 1.13825 24.9985 2.2477 24.3673L17.1636 14.3941C18.273 13.6366 19.8756 14.0153 20.6152 15.1515C21.3548 16.2877 20.985 17.9289 19.8756 18.6863L12.9723 23.1048C12.6025 23.3573 12.7258 23.9885 13.2189 23.9885H18.3963C19.629 23.9885 20.3687 24.8722 20.7385 25.8822C20.985 26.8921 20.7385 28.0283 19.7523 28.6595L12.9723 33.2043C12.6025 33.4568 12.7258 34.088 13.2189 34.088H18.3963C19.629 34.088 20.3687 34.9717 20.7385 35.8554C20.985 36.8653 20.7385 38.0015 19.7523 38.6327L4.83641 48.6059C3.72696 49.3634 2.12443 48.9847 1.3848 47.8485C0.645169 46.7123 1.01498 45.0711 2.12443 44.3137L8.90438 39.7689C9.27419 39.5164 9.15092 38.8852 8.65783 38.8852H3.48042C2.74079 39.0115 1.87789 38.6327 1.50807 37.8753Z" fill="#00ED64" stroke="#001E2B" stroke-miterlimit="10"/>
</svg>