<?xml version="1.0" encoding="utf-8"?>
<svg xmlns="http://www.w3.org/2000/svg" width="66" height="54" viewBox="-60 0 200 50" fill="none">
<path d="M55.802 30.5L63.728 34.8985C65.424 35.6627 65.424 38.0508 63.728 38.8149L34.9953 52.5702C33.6984 53.1433 32.3016 53.1433 31.0047 52.5702L2.27202 38.8149C0.575994 38.0508 0.575994 35.6627 2.27202 34.8985L11.1812 30" stroke="#001E2B" stroke-miterlimit="10"/>
<path d="M2.27202 31.8149C0.575994 31.0508 0.575994 28.6627 2.27202 27.8985L7.91519 25C7.99971 25.1728 8.09009 25.3427 8.18631 25.5097C9.86692 28.745 13.327 30.9999 17.3802 30.9999H51.1901C54.7491 30.9999 57.7148 28.647 58.7034 25.5097L63.728 27.8985C65.424 28.6627 65.424 31.0508 63.728 31.8149L34.9953 45.5702C33.6984 46.1433 32.3016 46.1433 31.0047 45.5702L2.27202 31.8149Z" fill="#00ED64" stroke="#001E2B" stroke-miterlimit="10"/>
<path d="M48.3182 15.8465C47.94 7.58166 41.287 1 33.1352 1C26.857 1 21.3996 5.01347 19.0783 10.5883C18.9882 10.8046 18.7641 10.9344 18.5313 10.9085C18.1597 10.8673 17.7823 10.8462 17.4 10.8462C12.6 10.4359 7 14.8013 7 20.6923C7 26.5833 11.6562 31 17.4 31H51.4C55.5974 31 59 27.8691 59 23.5641C59 19.2591 55.5974 15.7692 51.4 15.7692C50.6538 15.7692 49.782 16.0358 49.0267 16.318C48.6942 16.4423 48.3344 16.2011 48.3182 15.8465Z" stroke="#001E2B"/>
<path d="M57.2254 8.57452C56.8569 4.32919 53.3475 1 49.0728 1C45.7569 1 42.8662 3.05943 41.5772 5.94411C41.482 6.15723 41.2595 6.28537 41.0267 6.26755C40.8859 6.25677 40.7436 6.25128 40.6 6.25128C38.0154 6.03248 35 8.36068 35 11.5026C35 14.6445 37.5072 17 40.6 17H58.9077C61.1678 17 63 15.3302 63 13.0342C63 10.7382 61.1678 8.87692 58.9077 8.87692C58.6086 8.87692 58.2721 8.95569 57.9518 9.05805C57.6144 9.16589 57.2561 8.92744 57.2254 8.57452Z" fill="#00ED64" stroke="#001E2B"/>
</svg>